<?xml version="1.0" encoding="UTF-8"?><svg id="a" xmlns="http://www.w3.org/2000/svg" viewBox="0 0 500 500"><path d="m347.9999082006,424.7733557331c11.5773014682-16.3444286586,31.326791287-44.9471398429,40.8610456676-58.5674883988,9.5342543806-13.6203485559,17.0254356948-25.8786570604,21.1115298701-32.0078243021,4.0860941753-6.1291672416,0-.6810070363,1.3620400513-2.7240801027s.6810070363-.6810070363.6810070363-.6810070363c25.8786570604-63.3346155891,47.6712459243-119.1780498639,86.4892185256-175.7024911751,0-3.405087139.6810070363-7.4911943036.6810070363-10.8962814426-59.9295024714-2.0430730664-116.4539437825-18.3874887356-176.3834722326-19.7495287869-2.0430470876,14.3013685815-4.7671271903,27.9217171374-6.8101742779,42.223085719,42.223085719-1.3620400513,78.9980112326,5.4481342266,120.540115894,13.6203485559-10.2152614169,23.1545899471-20.4305228338,46.3091798942-30.6457842507,69.4637828307-4.7671271903-9.5342543806-10.8962684532-17.7064427311-17.7064427311-25.1976500241-17.0254356949-15.6633956435-32.6888313384-25.8786570604-57.8864813625-25.1976500241-21.1115298701.6810200257-41.5420527039,6.8101742779-59.2485214138,17.0254356948-9.5342543806,6.1291672416-17.7064427311,14.3013555922-25.1976500241,23.1546029365-26.5596900755-38.81799858-53.1193541722-77.6359841706-81.7220913353-115.0919426993,28.6027371631-46.3091863889,71.5068299184-74.9119170573,106.2387083444-115.772962725-14.982414586-1.3620424868-29.9648031932-3.4050952573-44.9471918004-5.448147216-58.5675013882,50.3952870589-88.5322656132,93.2993863088-127.3502641932,160.0390955316-6.8101742779-58.5675013882-29.2837506941-100.7905806124-57.2054613368-151.8668812023C27.2406971118,16.8439109641,13.6203485559,21.6110332834,0,27.0591740046c47.6712199456,93.9804063345,61.2915685015,160.0390890369,59.2485149191,265.596790345v4.0860941753c1.3620335567,26.5596900755,8.1722078346,53.8003871872,25.1976435294,74.230910021,14.9823821125,18.3874757462,38.1369785543,28.6027371631,61.9725885271,27.9217041481,21.1115428595,0,41.5420656933-6.1291672416,59.2485084244-18.3874757462,19.7495157975-12.2583085045,29.9647772144-30.6457842507,42.223085719-51.0763070845,4.0860941753-6.1291672416,10.2152614169-19.7495157975,13.6203485559-27.2406971118,3.405087139-7.4911813142,6.8101742779-12.9393415196,10.2152614169-19.0684827825.6810070363-1.3620400513,1.3620400513-2.7240801027,2.0430470876-3.405087139,2.7240801027-5.4481342266,6.1291672417-10.2152614169,10.2152614169-14.9823886072,5.4481342266-6.1291672416,12.2583085045-10.8962684532,19.0684827825-14.3013555922,7.4911813142-4.0860941753,16.3444286586-6.1291672416,24.5166170091-6.8101742779,12.9393415196,0,24.5166170091,1.3620400513,34.731878426,10.2152614169,9.5342543806,8.1722143293,14.3013555922,19.7495157975,14.9823886072,31.326791287-.6810070363,11.5773014682-3.405087139,23.1546029365-8.1722143293,34.0508713897q0,.6810070363-.6810070363.6810070363c-28.6027371631,44.9471398429-59.2485214138,89.2132986283-87.1702255619,134.8414455075,0,3.405087139-.6810070363,6.8101742779-.6810070363,10.8962684532,70.8258228821,7.4912332717,119.859082879-3.4050351815,186.5987856071,27.9217561056,6.1291672416-12.9393415196,12.9393415196-25.8786830392,19.0685087612-38.8179726013-48.3522269819-25.8786830392-83.7651644017-34.7319044047-138.2465586252-29.9647772144Zm-133.4794054561-129.3933112809c-8.1722143293,17.0254356948-19.0684827825,36.7749514924-32.6888313384,46.3091798942-9.5342413912,7.4911813142-21.7925628852,12.2583085045-34.0508713897,12.2583085045-13.6203485559,1.3620400513-26.5596770861-4.0860941753-35.412911441-14.9823886072-10.2152614169-10.8962684532-12.9393285302-26.5596900755-13.6203485559-40.8610456676v-4.7671271903c1.3620335566-25.1976500241,1.3620335566-51.0763070845.6810200257-76.2739571087,12.9393285302-19.0684827825,25.8786570604-38.81799858,38.8179855906-57.8864813625,28.6027371631,40.1800386313,54.4813942235,82.4031243503,83.0841313866,122.5831629817-1.3620400513,3.405087139-5.4481342266,11.5772754895-6.8101742779,13.6203485559Z"/><path d="m181.8316714061,272.9064485521c0,10.2152614169-8.1722143293,19.0684827825-18.3874757462,19.0684827825-9.5342413912.6810070363-17.7064557205-6.1291672416-18.3874757462-15.6633956435v-2.0430470876c0-10.2152614169,8.1722143293-18.3874757462,18.3874757462-18.3874757462,8.8532213656-1.3620400513,17.0254356948,5.4481342266,18.3874757462,14.3013555922v2.7240801027Z"/></svg>