<?xml version="1.0" encoding="UTF-8"?><svg id="a" xmlns="http://www.w3.org/2000/svg" viewBox="0 0 75 75"><path d="m51.5999984741,62.9000015259c1.7000007629-2.4000015259,4.5999984741-6.5999984741,6-8.5999984741s2.5-3.7999992371,3.0999984741-4.7000007629,0-.0999984741.2000007629-.4000015259.0999984741-.0999984741.0999984741-.0999984741c3.7999992371-9.2999992371,7.0000038147-17.5,12.7000007629-25.7999992371,0-.5.0999984741-1.1000003815.0999984741-1.6000003815-8.7999954224-.3000030518-17.0999946594-2.7000026703-25.8999938965-2.9000034332-.2999992371,2.1000003815-.7000007629,4.1000003815-1,6.2000007629,6.2000007629-.2000007629,11.5999984741.7999992371,17.7000045776,2-1.5,3.3999996185-3,6.7999992371-4.5,10.2000007629-.7000007629-1.4000015259-1.5999984741-2.5999984741-2.5999984741-3.7000007629-2.5-2.2999992371-4.7999992371-3.7999992371-8.5-3.7000007629-3.0999984741.1000003815-6.0999984741,1-8.7000007629,2.5-1.4000015259.9000015259-2.5999984741,2.0999984741-3.7000007629,3.4000015259-3.9000015259-5.7000007629-7.7999992371-11.3999996185-12-16.8999996185,4.2000007629-6.8000001907,10.5-11,15.5999984741-17-2.2000045776-.2000011206-4.4000053406-.5000011921-6.6000061035-.8000011444-8.6000003815,7.3999996185-13,13.6999998093-18.7000007629,23.5-1-8.6000003815-4.3000001907-14.8000001907-8.3999996185-22.2999992371-2,.7999999523-4,1.5-6,2.3000001907,7,13.8000001907,9,23.4999990463,8.6999998093,38.9999990463v.5999984741c.1999998093,3.9000015259,1.1999998093,7.9000015259,3.6999998093,10.9000015259,2.1999998093,2.7000007629,5.6000003815,4.2000007629,9.1000003815,4.0999984741,3.1000003815,0,6.1000003815-.9000015259,8.6999988556-2.7000007629,2.9000015259-1.7999992371,4.4000015259-4.5,6.2000007629-7.5.5999984741-.9000015259,1.5-2.9000015259,2-4s1-1.9000015259,1.5-2.7999992371c.0999984741-.2000007629.2000007629-.4000015259.2999992371-.5.4000015259-.7999992371.9000015259-1.5,1.5-2.2000007629.7999992371-.9000015259,1.7999992371-1.5999984741,2.7999992371-2.0999984741,1.0999984741-.5999984741,2.4000015259-.9000015259,3.5999984741-1,1.9000015259,0,3.5999984741.2000007629,5.0999984741,1.5,1.4000015259,1.2000007629,2.0999984741,2.9000015259,2.2000007629,4.5999984741-.0999984741,1.7000007629-.5,3.4000015259-1.2000007629,5q0,.0999984741-.0999984741.0999984741c-4.2000007629,6.5999984741-8.7000007629,13.1000022888-12.7999992371,19.7999992371,0,.5-.0999984741,1-.0999984741,1.5999984741,10.4000015259,1.1000061035,17.6000022888-.4999923706,27.4000015259,4.1000061035.9000015259-1.9000015259,1.9000015259-3.8000030518,2.8000030518-5.6999969482-7.0999984741-3.8000030518-12.3000030518-5.1000022888-20.3000030518-4.4000015259Zm-19.5999984741-19c-1.2000007629,2.5-2.7999992371,5.4000015259-4.7999992371,6.7999992371-1.3999996185,1.0999984741-3.2000007629,1.7999992371-5,1.7999992371-2,.2000007629-3.8999996185-.5999984741-5.2000007629-2.2000007629-1.5-1.5999984741-1.8999996185-3.9000015259-2-6v-.7000007629c.1999998093-3.7000007629.1999998093-7.5.1000003815-11.2000007629,1.8999996185-2.7999992371,3.7999992371-5.7000007629,5.6999988556-8.5,4.2000007629,5.9000015259,8,12.1000022888,12.2000007629,18.0000038147-.2000007629.5-.7999992371,1.6999969482-1,2Z"/><path d="m27.2000007629,40.5999984741c0,1.5-1.2000007629,2.7999992371-2.7000007629,2.7999992371-1.3999996185.0999984741-2.6000003815-.9000015259-2.7000007629-2.2999992371v-.2999992371c0-1.5,1.2000007629-2.7000007629,2.7000007629-2.7000007629,1.2999992371-.2000007629,2.5.7999992371,2.7000007629,2.0999984741v.4000015259Z"/></svg>